<svg height="512pt" viewBox="-16 0 512 512.00001" width="512pt" xmlns="http://www.w3.org/2000/svg"><path d="m385.726562 159.535156c-4.300781 0-7.789062-3.484375-7.789062-7.785156v-78.996094c0-6.773437 5.019531-12.359375 12.492188-13.90625l72.234374-15.066406c3.609376-.742188 7.367188.207031 10.316407 2.609375 3.34375 2.722656 5.339843 6.945313 5.339843 11.292969v61.175781c0 4.300781-3.484374 7.789063-7.785156 7.789063-4.300781 0-7.789062-3.488282-7.789062-7.789063v-59.183594l-69.152344 14.421875c-.027344.003906-.054688.011719-.085938.015625v77.636719c.003907 4.300781-3.484374 7.785156-7.78125 7.785156zm0 0" fill="#666"/><path d="m432.53125 311.554688c-2.847656 0-5.589844-1.570313-6.957031-4.285157l-7.480469-14.835937c-1.933594-3.839844-.390625-8.523438 3.449219-10.457032 3.839843-1.933593 8.519531-.394531 10.457031 3.445313l7.476562 14.835937c1.9375 3.839844.394532 8.523438-3.445312 10.460938-1.125.566406-2.320312.835938-3.5.835938zm0 0" fill="#733e08"/><path d="m460.605469 297.1875c-2.84375 0-5.585938-1.570312-6.957031-4.285156l-7.480469-14.835938c-1.933594-3.839844-.390625-8.519531 3.449219-10.457031 3.839843-1.933594 8.519531-.394531 10.457031 3.445313l7.480469 14.835937c1.933593 3.839844.390624 8.523437-3.449219 10.460937-1.125.566407-2.320313.835938-3.5.835938zm0 0" fill="#733e08"/><path d="m397.445312 246.695312c-2.851562 0-5.597656-1.570312-6.964843-4.292968l-7.449219-14.835938c-1.929688-3.839844-.378906-8.523437 3.464844-10.453125 3.839844-1.929687 8.519531-.378906 10.449218 3.464844l7.453126 14.835937c1.929687 3.84375.378906 8.523438-3.464844 10.453126-1.121094.5625-2.3125.828124-3.488282.828124zm0 0" fill="#733e08"/><path d="m425.519531 232.300781c-2.847656 0-5.589843-1.566406-6.957031-4.285156l-7.480469-14.832031c-1.933593-3.839844-.390625-8.523438 3.445313-10.460938 3.84375-1.933594 8.523437-.390625 10.457031 3.449219l7.480469 14.832031c1.9375 3.839844.394531 8.523438-3.445313 10.460938-1.125.566406-2.320312.835937-3.5.835937zm0 0" fill="#733e08"/><g fill-rule="evenodd"><path d="m425.515625 224.511719-28.078125 14.394531-12.851562 6.570312c-2.980469 1.550782-4.179688 5.226563-2.660157 8.175782l2.660157 5.199218 15.21875 29.667969 2.660156 5.171875c1.519531 2.976563 5.199218 4.144532 8.179687 2.625l14.402344-7.386718 28.074219-14.367188 14.023437-7.183594c2.953125-1.519531 4.148438-5.199218 2.628907-8.175781l-20.539063-40.035156c-1.515625-2.949219-5.199219-4.148438-8.179687-2.628907zm0 0" fill="#f78411"/><path d="m197.265625 184.679688-50.921875 32.007812c-1.109375 1.285156-9.054688 9.3125-10.457031 10.628906-3.332031 3.179688-7.390625 6.335938-12.066407 8.875 13 67.574219 132.691407 58.609375 139 1.988282-4.527343-3.097657-8.296874-6.660157-11.101562-10.046876l-7.15625-8.730468zm0 0" fill="#fcc368"/><path d="m65.539062 437.1875v59.570312c0 8.378907 6.628907 15.242188 14.722657 15.242188h222.378906c8.089844 0 14.695313-6.863281 14.695313-15.242188v-77.558593c20.011718-23.070313 52.4375-67.457031 29.269531-140.898438-10.601563-21.84375-26.847657-30.164062-54.132813-31.625-.640625-.058593-4.703125-.175781-5.375-.203125-9.289062-.292968-17.617187-3.769531-24.277344-8.292968-24.976562 41.902343-112.53125 42.253906-139-1.988282-5.695312 3.097656-12.300781 5.285156-19.542968 5.519532-.644532.058593-4.734375.175781-5.375.203124-33.597656 1.78125-52.03125 17.960938-62.488282 50.898438l-24.074218 75.925781 53.199218 27.859375zm0 0" fill="#64b0d9"/><path d="m147.308594 312.144531c-50.628906-17.433593-85.539063 6.628907-91.9375 52.941407-1.34375 18.863281-.4375 38.253906 4.996094 58.726562 15.773437 57.410156 98.625 79.953125 142.710937 23.710938 14.871094-18.980469 29.417969-32.96875 52.527344-31.390626 24.335937 1.632813 39.992187-12.0625 39.175781-29.554687-.117188-2.714844-.699219-4.933594-4.792969-4.234375-16.210937 2.6875-29.152343-18.308594-12.882812-30.953125l-23.28125 11.914063c-3.449219 1.753906-7.800781.234374-9.671875-3.386719l-8.414063-16.441407c-1.867187-3.648437-.582031-8.058593 2.894531-9.839843l23.546876-12.058594c-5.84375-26.777344-37.628907-35.566406-60.035157-16.617187-18.085937 15.273437-35.46875 13.140624-54.835937 7.183593zm0 0" fill="#f78411"/><path d="m384.585938 258.851562-37.980469 19.449219-84.425781 43.277344-23.546876 12.058594c-3.480468 1.78125-4.761718 6.191406-2.894531 9.84375l8.414063 16.4375c1.871094 3.621093 6.222656 5.140625 9.671875 3.386719l23.28125-11.914063c41.835937-21.460937 80.632812-41.320313 122.703125-62.871094zm0 0" fill="#b5722f"/><path d="m202.757812 363.539062c-8.855468-13.375-30.0625-14.980468-40.257812-8.234374-10.195312 6.714843-11.335938 11.738281-12.652344 19.417968-.523437-.058594-1.078125-.058594-1.664062-.058594h-3.476563c17.675781 0 23.984375 18.894532 15.164063 30.605469.554687-.730469 1.050781-1.488281 1.519531-2.277343 9.492187 6.949218 22.699219 7.648437 33.128906.785156 13.378907-8.847656 17.058594-26.835938 8.238281-40.238282zm0 0" fill="#b5722f"/><path d="m55.371094 365.085938c-14.636719-4.261719-21.296875-5.839844-34.679688-.902344-3.09375 1.167968-5.898437 2.714844-8.351562 4.554687-17.003906 12.816407-18.085938 40.238281 7.300781 51.625 7.304687 3.273438 22.613281 3.945313 40.726563 3.449219 15.6875-.410156 33.480468-1.664062 50.074218-2.835938 13.351563-.902343 40.285156-3.621093 49.429688-15.707031 8.820312-11.710937 2.511718-30.605469-15.164063-30.605469h-10.984375c-7.128906 0-12.359375-2.453124-8.296875-11.210937 5.8125-12.527344-12.242187-17.8125-22.757812-6.132813-8.296875 9.199219-5.988281 18.425782-18.40625 15.535157-12.675781-2.921875-21.734375-5.664063-28.890625-7.769531zm0 0" fill="#ffdda6"/><path d="m104.539062 113.488281h-14.023437c-5.140625 0-9.378906 4.203125-9.378906 9.375v9.285157c0 11.828124 13.117187 23.914062 24.832031 23.769531l17.851562-25.84375zm0 0" fill="#eda93b"/><path d="m313.359375 122.859375c0-5.167969-4.234375-9.371094-9.375-9.371094h-13.996094l-21.210937 21.199219 19.75 21.226562c11.714844.148438 24.832031-11.941406 24.832031-23.769531zm0 0" fill="#eda93b"/><path d="m289.988281 92.726562-88.195312-41.410156-97.253907 40.535156v51.011719c0 4.234375.496094 8.617188 1.429688 13.054688 4.644531 21.578125 20.011719 44.679687 40.375 60.769531 8.53125 6.714844 17.9375 12.234375 27.8125 15.882812 16.824219 6.25 29.503906 6.222657 46.332031-.054687 8.445313-3.125 16.566407-7.652344 24.074219-13.113281 22.144531-16.148438 39.058594-40.648438 43.964844-63.484375.964844-4.4375 1.460937-8.816407 1.460937-13.050781zm0 0" fill="#ffdda6"/><path d="m242.632812 7.484375c-28.484374 15.15625-64.039062-6.917969-93.863281 6.191406-29.246093 12.851563-44.230469 40.300781-44.230469 78.171875 85.507813-31.683594 114.023438 40.269532 185.449219.878906 3.011719-1.664062 6.109375-3.535156 9.261719-5.609374 53.929688-39.15625 1.082031-110.320313-56.617188-79.632813zm0 0" fill="#808080"/><path d="m340.414062 334.339844-20.625 20.761718c-7.449218 14.425782-13.847656 69.585938 9.316407 74.8125 32.691406 7.386719 55.65625-16.148437 46.628906-52.007812l-9.058594-35.945312zm0 0" fill="#ffdda6"/><path d="m362.703125 307.53125c-3.652344-3.824219-9.550781-4.964844-14.402344-2.367188l-34.210937 18.164063c-4.554688 2.425781-6.921875 7.445313-6.25 12.292969.175781 1.375.582031 2.71875 1.285156 3.972656l4.382812 8.265625c1.578126 2.949219 3.738282 5.402344 6.28125 7.242187 6.425782 4.671876 15.21875 5.574219 22.667969 1.632813l17.644531-9.375c2.601563-1.398437 4.820313-3.238281 6.574219-5.398437 5.226563-6.484376 6.425781-15.742188 2.308594-23.539063l-4.414063-8.261719c-.492187-.992187-1.136718-1.871094-1.867187-2.628906zm0 0" fill="#fcc368"/><path d="m375.734375 377.90625-9.058594-35.945312c-1.75 2.160156-3.972656 4-6.570312 5.402343l-1.402344.730469 3.972656 15.824219c8.910157 35.335937-13.292969 58.726562-45.222656 52.300781-.46875-.085938-.9375-.175781-1.402344-.292969 0 0 0 0-.03125 0 .410157 1.140625.847657 2.25 1.316407 3.273438 2.542968 5.546875 6.367187 9.488281 11.773437 10.714843 32.6875 7.390626 55.652344-16.148437 46.625-52.007812zm0 0" fill="#fcc368"/><path d="m194.167969 429.214844c-36.929688 47.160156-101.167969 38.925781-130.238281 1.195312-.933594-1.195312-1.839844-2.453125-2.714844-3.738281 1.195312 3.679687 2.628906 7.183594 4.324218 10.515625 23.925782 47.21875 97.078126 61.964844 137.539063 10.335938 14.871094-18.980469 29.417969-32.96875 52.527344-31.390626 24.335937 1.632813 39.992187-12.0625 39.175781-29.554687-.117188-2.714844-.699219-4.933594-4.792969-4.234375-2.511719.410156-4.933593.265625-7.214843-.347656-5.667969 10.308594-18.636719 16.992187-36.078126 15.824218-23.109374-1.574218-37.65625 12.414063-52.527343 31.394532zm0 0" fill="#f74311"/><path d="m186.25 390.667969c-6.71875 4.4375-14.578125 5.722656-21.878906 4.203125-.207032-.027344-.410156-.085938-.585938-.113282-.261718 3.675782-1.546875 7.355469-3.914062 10.511719.554687-.730469 1.050781-1.488281 1.519531-2.277343 9.492187 6.949218 22.699219 7.648437 33.128906.785156 13.378907-8.847656 17.058594-26.835938 8.238281-40.238282-1.285156-1.957031-2.835937-3.648437-4.589843-5.109374 3.417969 11.886718-1.050781 25.085937-11.917969 32.238281zm0 0" fill="#733e08"/><path d="m155.664062 389.878906c-9.144531 12.121094-36.050781 14.804688-49.429687 15.742188-15.71875 1.078125-32.515625 2.246094-47.5625 2.742187-.554687 0-1.082031.03125-1.605469.03125-.292968.027344-.585937.027344-.878906.027344-18.140625.496094-33.417969-.144531-40.753906-3.445313-7.183594-3.210937-12.238282-7.707031-15.4218752-12.820312-.2929688 10.863281 5.6679692 21.960938 19.6289062 28.210938 7.304687 3.269531 22.613281 3.941406 40.726563 3.445312.671874 0 1.316406-.027344 1.957031-.058594 15.191406-.464844 32.222656-1.664062 48.117187-2.773437 13.351563-.90625 40.285156-3.621094 49.429688-15.710938 2.363281-3.152343 3.652344-6.832031 3.914062-10.511719.320313-4.964843-1.199218-9.957031-4.382812-13.726562-.496094 3.125-1.722656 6.160156-3.738282 8.847656zm0 0" fill="#fcc368"/><path d="m445.613281 259.960938-28.046875 14.367187-14.429687 7.390625c-2.953125 1.515625-6.632813.347656-8.152344-2.628906l4.820313 9.429687 2.660156 5.171875c1.515625 2.976563 5.199218 4.144532 8.179687 2.625l14.402344-7.386718 28.074219-14.367188 14.023437-7.183594c2.949219-1.519531 4.148438-5.199218 2.628907-8.175781l-7.480469-14.542969c1.492187 2.949219.292969 6.601563-2.65625 8.117188zm0 0" fill="#f74311"/><path d="m346.605469 278.300781c-10.601563-21.84375-26.847657-30.164062-54.132813-31.625-.640625-.058593-4.703125-.175781-5.375-.203125-9.289062-.292968-17.617187-3.769531-24.277344-8.292968-4.292968 7.183593-10.429687 13.140624-17.761718 17.871093.234375.175781.46875.320313.703125.464844 6.453125 4.148437 14.3125 7.214844 23.046875 7.507813.671875.027343 4.734375.144531 5.375.171874 24.453125 1.316407 40.023437 8.148438 50.628906 25.261719zm0 0" fill="#4a83c9"/><path d="m174.15625 232.570312c-9.875-3.648437-19.28125-9.167968-27.8125-15.886718-1.109375 1.285156-9.054688 9.34375-10.460938 10.628906l-1.578124 1.460938c8.296874 9.082031 24.367187 15.742187 35.933593 19.390624 19.839844 6.25 34.738281 6.21875 54.574219-.027343 5.113281-1.636719 7.652344.992187 12.296875 3.824219 2.980469 1.808593 2.601563 1.515624 7.800781 4.175781.058594-.03125.089844-.058594.148438-.089844 7.332031-4.730469 13.464844-10.6875 17.761718-17.871094-2.398437-1.632812-4.558593-3.386719-6.515624-5.195312-1.722657-1.609375-3.242188-3.242188-4.585938-4.847657l-7.160156-8.730468c-7.507813 5.460937-15.628906 9.984375-24.074219 13.109375-16.820313 6.277343-29.5 6.308593-46.328125.058593zm0 0" fill="#eda93b"/><path d="m289.988281 92.726562c-6.777343 3.738282-13.144531 6.453126-19.25 8.378907v33.960937c0 .585938 0 1.140625-.027343 1.722656-.117188 3.710938-.585938 7.476563-1.433594 11.332032-4.585938 21.375-19.660156 44.183594-39.730469 60.273437-1.371094 1.109375-2.804687 2.160157-4.234375 3.210938-7.507812 5.460937-15.601562 9.988281-24.074219 13.140625-14.285156 5.316406-25.5625 6.132812-38.972656 2.425781 3.855469 2.070313 7.828125 3.910156 11.890625 5.398437 16.828125 6.25 29.507812 6.222657 46.332031-.054687 8.445313-3.125 16.566407-7.652344 24.074219-13.113281 22.144531-16.148438 39.058594-40.648438 43.96875-63.484375.964844-4.4375 1.460938-8.816407 1.460938-13.050781v-50.140626zm0 0" fill="#fcc368"/><path d="m299.25 87.117188c50.746094-36.851563 6.953125-102.027344-46.480469-84.039063 40.375 3.648437 65.382813 53.085937 26.46875 84.597656-.964843.785157-1.957031 1.546875-3.007812 2.304688-3.183594 2.074219-6.28125 3.941406-9.289063 5.609375-7.832031 4.320312-15.164062 7.296875-22.117187 9.226562 8.152343.234375 16.683593-.820312 25.914062-3.710937 6.105469-1.925781 12.472657-4.640625 19.25-8.378907 3.011719-1.664062 6.105469-3.535156 9.261719-5.609374zm0 0" fill="#666"/><path d="m308.308594 337.667969c.203125.671875.464844 1.3125.816406 1.925781l4.382812 8.265625c1.578126 2.949219 3.738282 5.402344 6.28125 7.242187 6.425782 4.671876 15.21875 5.574219 22.667969 1.632813l17.644531-9.375c2.601563-1.398437 4.820313-3.238281 6.574219-5.398437 5.230469-6.484376 6.425781-15.742188 2.308594-23.539063l-4.0625-7.648437c8.066406 21.609374-46.742187 45.523437-56.613281 26.894531zm0 0" fill="#eda93b"/><path d="m351.046875 294.976562-111.101563 56.707032.089844.175781 4.117188 8.058594c1.871094 3.621093 6.222656 5.140625 9.667968 3.386719l23.285157-11.914063 30.734375-15.769531c-.671875-4.84375 1.695312-9.867188 6.25-12.292969l34.210937-18.164063c.117188-.054687.234375-.113281.351563-.171874 1.316406-.644532 2.6875-1.023438 4.0625-1.167969 3.679687-.351563 7.390625.992187 9.988281 3.707031l37.101563-19.007812-4.820313-9.433594-2.65625-5.199219zm0 0" fill="#733e08"/><path d="m385.726562 143.507812c-5.203124-2.570312-12.535156-3.210937-20.714843-1.316406-15.6875 3.652344-28.394531 15.214844-28.394531 25.875 0 10.65625 12.707031 16.351563 28.394531 12.730469 15.6875-3.648437 28.398437-15.214844 28.398437-25.871094 0-5.113281-2.921875-9.082031-7.683594-11.417969zm0 0" fill="#a2d6f2"/><path d="m470.535156 111.648438c-5.027344-1.898438-11.65625-2.21875-18.933594-.527344-15.6875 3.621094-28.394531 15.214844-28.394531 25.871094 0 10.660156 12.707031 16.355468 28.394531 12.703124 15.691407-3.617187 28.398438-15.210937 28.398438-25.871093 0-5.691407-3.652344-9.984375-9.464844-12.175781zm0 0" fill="#a2d6f2"/><path d="m385.726562 143.507812c-5.203124-2.570312-12.535156-3.210937-20.714843-1.316406-.4375.117188-.875.207032-1.285157.324219.820313.289063 1.609376.613281 2.335938.992187 4.765625 2.335938 7.683594 6.308594 7.683594 11.417969 0 10.335938-12.007813 21.578125-27.082032 25.550781 4.9375 1.695313 11.363282 1.925782 18.347657.320313 15.6875-3.648437 28.398437-15.214844 28.398437-25.871094 0-5.113281-2.921875-9.082031-7.683594-11.417969zm0 0" fill="#64b0d9"/><path d="m480 123.824219c0-5.691407-3.652344-9.984375-9.464844-12.175781-5.027344-1.898438-11.65625-2.21875-18.933594-.527344-.4375.089844-.875.203125-1.3125.320312.203126.058594.40625.148438.613282.207032 5.78125 2.1875 9.433594 6.480468 9.433594 12.175781 0 10.367187-12.003907 21.609375-27.082032 25.550781 4.9375 1.722656 11.335938 1.957031 18.347656.320312 15.691407-3.617187 28.398438-15.210937 28.398438-25.871093zm0 0" fill="#64b0d9"/></g><path d="m149.347656 142.480469c-1.839844 0-3.6875-.648438-5.175781-1.96875-3.210937-2.859375-3.496094-7.785157-.636719-11 5.585938-6.277344 15.308594-6.957031 19.230469-6.957031h.003906c3.921875 0 13.628907.675781 19.21875 6.957031 2.859375 3.210937 2.570313 8.132812-.640625 10.992187-3.214844 2.859375-8.136718 2.574219-10.992187-.640625-.582031-.59375-3.398438-1.726562-7.53125-1.734375-.015625 0-.035157 0-.054688 0-4.160156 0-7.003906 1.132813-7.605469 1.742188-1.539062 1.730468-3.671874 2.609375-5.816406 2.609375zm0 0" fill="#666"/><path d="m217.328125 142.484375c-1.832031 0-3.675781-.644531-5.15625-1.957031-3.222656-2.847656-3.519531-7.773438-.671875-10.996094 5.550781-6.277344 15.253906-6.972656 19.167969-6.976562h.050781c3.964844 0 13.640625.6875 19.222656 6.957031 2.855469 3.214843 2.570313 8.136719-.644531 10.996093-3.210937 2.855469-8.132813 2.570313-10.992187-.644531-.578126-.589843-3.378907-1.71875-7.492188-1.734375-.027344 0-.058594 0-.085938 0-4.136718 0-6.96875 1.121094-7.570312 1.730469-1.535156 1.738281-3.675781 2.625-5.828125 2.625zm0 0" fill="#666"/></svg>