<?xml version="1.0"?>
<svg xmlns="http://www.w3.org/2000/svg" xmlns:xlink="http://www.w3.org/1999/xlink" xmlns:svgjs="http://svgjs.com/svgjs" version="1.1" width="512" height="512" x="0" y="0" viewBox="0 0 512 512" style="enable-background:new 0 0 512 512" xml:space="preserve" class=""><g><path xmlns="http://www.w3.org/2000/svg" d="m336.47 457.31a29.906 29.906 0 0 0 -21.21-8.79 20.007 20.007 0 0 1 -20-20v-32.08h-110v32.08a20.007 20.007 0 0 1 -20 20 30.011 30.011 0 0 0 -30 30h210a29.906 29.906 0 0 0 -8.79-21.21z" fill="#8aafc4" data-original="#8aafc4" style=""/><path xmlns="http://www.w3.org/2000/svg" d="m195.26 448.52a20.007 20.007 0 0 0 20-20v-32.08h-30v32.08a20.007 20.007 0 0 1 -20 20 30.011 30.011 0 0 0 -30 30h30a30.011 30.011 0 0 1 30-30z" fill="#6f909e" data-original="#6f909e" style=""/><path xmlns="http://www.w3.org/2000/svg" d="m287 52h-250.24c-11.04 0-19.76 9.4-19.76 20.44v255.56h453v-200z" fill="#80aaff" data-original="#80aaff" style=""/><path xmlns="http://www.w3.org/2000/svg" d="m477.83 33.48h-193.21a17.41 17.41 0 0 0 -17.41 17.41v79.73a17.41 17.41 0 0 0 17.41 17.41h19.99v39.95l27.34-39.95h145.88a17.417 17.417 0 0 0 17.41-17.41v-79.73a17.417 17.417 0 0 0 -17.41-17.41z" fill="#dbd067" data-original="#dbd067" style=""/><path xmlns="http://www.w3.org/2000/svg" d="m287.31 255.78a42.181 42.181 0 0 0 -15.78-20.45 44.107 44.107 0 0 0 -11.22-5.65l-54.12-18.27h-54.6l-54.1 18.25a44.566 44.566 0 0 0 -11 5.49 42.322 42.322 0 0 0 -17.03 23.64 42.926 42.926 0 0 0 -1.39 7.87v61.78h221.58v-61.78a43.164 43.164 0 0 0 -2.34-10.88z" fill="#6d6d93" data-original="#6d6d93" style="" class=""/><path xmlns="http://www.w3.org/2000/svg" d="m289.65 328.14v.3h-32.36v-55.49a56.78 56.78 0 0 1 14.24-37.62 42.181 42.181 0 0 1 15.78 20.45 43.164 43.164 0 0 1 2.34 10.88z" fill="#59597a" data-original="#59597a" style="" class=""/><path xmlns="http://www.w3.org/2000/svg" d="m223.35 262.17 9.87-14.55-27.03-31.16v111.68l.03.02 29.91-55.31z" fill="#59597a" data-original="#59597a" style="" class=""/><path xmlns="http://www.w3.org/2000/svg" d="m206.22 328.16-.15.28h-54.42l-.14-.26.08-.04v-97.35a47.12 47.12 0 0 0 54.56.03l.04-.03v97.35z" fill="#dbd067" data-original="#dbd067" style=""/><path xmlns="http://www.w3.org/2000/svg" d="m124.5 247.62 9.86 14.55-12.77 10.68 29.92 55.33.08-.04v-111.6z" fill="#59597a" data-original="#59597a" style="" class=""/><path xmlns="http://www.w3.org/2000/svg" d="m100.86 328.14v.3h-32.79v-61.78a42.926 42.926 0 0 1 1.39-7.87 42.322 42.322 0 0 1 17.03-23.64l.1.15a56.764 56.764 0 0 1 14.27 37.65z" fill="#59597a" data-original="#59597a" style="" class=""/><path xmlns="http://www.w3.org/2000/svg" d="m206.11 196.96-54.52-.65v34.48a47.12 47.12 0 0 0 54.56.03l.04-.03z" fill="#efc597" data-original="#efc597" style="" class=""/><path xmlns="http://www.w3.org/2000/svg" d="m151.59 197.31c-.15-.14-.29-.28-.44-.43a40.32 40.32 0 0 1 -11.85-28.6v-4.6h-2.02a7.582 7.582 0 0 1 -3.14-14.49 7.5 7.5 0 0 1 3.14-.68h2.02v-13.58c0-10.95 5.5-17.08 13.88-22.86l.06.14c3.26 8 13.03 10.27 24.59 10.27 12.53 0 22.98-3.3 25.28-12.35 5.08 2.68 9.35 5.81 12.36 9.8a24.021 24.021 0 0 1 4.74 15v13.58h2.02a7.33 7.33 0 0 1 2.16.32 7.582 7.582 0 0 1 -2.16 14.85h-2.02v4.6a40.451 40.451 0 0 1 -68.62 29.03z" fill="#ffd8b7" data-original="#ffd8b7" style="" class=""/><path xmlns="http://www.w3.org/2000/svg" d="m221.8 91.28 2.45 6.13a70.083 70.083 0 0 1 .14 51.42 7.33 7.33 0 0 0 -2.16-.32h-2.02v-13.58a24.021 24.021 0 0 0 -4.74-15c-3.01-3.99-7.28-7.12-12.36-9.8-2.3 9.05-12.75 12.35-25.28 12.35-11.56 0-21.33-2.27-24.59-10.27l-.06-.14c-8.38 5.78-13.88 11.91-13.88 22.86v13.58h-2.02a7.5 7.5 0 0 0 -3.14.68l-2.46-6.2a53.271 53.271 0 0 1 0-39.38l.38-.97a8.3 8.3 0 0 1 7.71-5.23 10 10 0 0 0 10-10 10.031 10.031 0 0 1 7.71-9.74 9.657 9.657 0 0 1 3.35-.12c7.18.89 48.87 5.78 63.42-.14v5.1a16.726 16.726 0 0 1 -2.45 8.76z" fill="#4a5160" data-original="#4a5160" style="" class=""/><path xmlns="http://www.w3.org/2000/svg" d="m468 328h-451v50.44a19.426 19.426 0 0 0 19.76 19.56h412.95c11.05 0 20.29-8.51 20.29-19.56v-50.44z" fill="#b3d1e7" data-original="#b3d1e7" style="" class=""/><circle xmlns="http://www.w3.org/2000/svg" cx="240.26" cy="363.44" fill="#6d7486" r="10" data-original="#6d7486" style="" class=""/><path xmlns="http://www.w3.org/2000/svg" d="m297.21 130.62v-79.73a17.41 17.41 0 0 1 17.41-17.41h-30a17.41 17.41 0 0 0 -17.41 17.41v79.73a17.41 17.41 0 0 0 17.41 17.41h19.99v39.95l27.34-39.95h-17.33a17.41 17.41 0 0 1 -17.41-17.41z" fill="#bcb058" data-original="#bcb058" style="" class=""/><path xmlns="http://www.w3.org/2000/svg" d="m47 72.44c0-11.04 8.72-20.44 19.76-20.44h-30c-11.04 0-19.76 9.4-19.76 20.44v255.56h30z" fill="#6b96db" data-original="#6b96db" style=""/><path xmlns="http://www.w3.org/2000/svg" d="m47 378.44v-50.44h-30v50.44a19.426 19.426 0 0 0 19.76 19.56h30a19.426 19.426 0 0 1 -19.76-19.56z" fill="#95b3c6" data-original="#95b3c6" style=""/><g xmlns="http://www.w3.org/2000/svg" fill="#284268"><path d="m240.262 379.444a16 16 0 1 0 -16-16 16.019 16.019 0 0 0 16 16zm0-20a4 4 0 1 1 -4 4 4 4 0 0 1 4-4z" fill="#284268" data-original="#284268" style=""/><path d="m57 87.538a6 6 0 0 0 -6 6v6.3a6 6 0 0 0 12 0v-6.3a6 6 0 0 0 -6-6z" fill="#284268" data-original="#284268" style=""/><path d="m57 112.833a6 6 0 0 0 -6 6v76a6 6 0 0 0 12 0v-76a6 6 0 0 0 -6-6z" fill="#284268" data-original="#284268" style=""/><path d="m317.5 64.455c-2.809 0-5.5 1.008-5.5 3.384v24.483l-11.89-22.25c-2.736-5.257-4.355-5.617-8.387-5.617-2.808 0-5.723 1.08-5.723 3.457v45.723c0 2.3 2.692 3.457 5.5 3.457s5.5-1.152 5.5-3.457v-24.482l13.792 24.914c1.368 2.521 3.835 3.025 6.428 3.025 2.808 0 5.78-1.152 5.78-3.457v-45.8c0-2.372-2.691-3.38-5.5-3.38z" fill="#284268" data-original="#284268" style=""/><path d="m363.965 74c2.16 0 3.385-2.408 3.385-5.072 0-2.3-1.008-4.928-3.385-4.928h-25.634c-2.448 0-5.331 1.607-5.331 3.912v45.723c0 2.3 2.883 3.365 5.331 3.365h25.634c2.377 0 3.385-2.624 3.385-4.928 0-2.664-1.225-5.072-3.385-5.072h-18.965v-12h10.469c2.376 0 3.384-2.484 3.384-4.428 0-2.3-1.224-4.572-3.384-4.572h-10.469v-12z" fill="#284268" data-original="#284268" style=""/><path d="m429.991 64.455c-1.729 0-3.169.576-3.6 2.088l-10.945 36.939-5.688-24.337c-.432-1.945-2.952-2.953-5.4-2.953s-4.968 1.008-5.4 2.953l-5.689 24.337-10.947-36.939c-.432-1.512-1.872-2.088-3.6-2.088-3.24 0-7.273 2.016-7.273 4.464a3.2 3.2 0 0 0 .144.937l14.33 43.923c.792 2.521 4.1 3.745 7.416 3.745 3.241 0 6.7-1.224 7.273-3.745l3.744-17.065 3.745 17.065c.576 2.521 4.032 3.745 7.272 3.745 3.313 0 6.553-1.224 7.417-3.745l14.329-43.923a3.2 3.2 0 0 0 .144-.937c0-2.448-4.032-4.464-7.272-4.464z" fill="#284268" data-original="#284268" style=""/><path d="m454.25 77.849c0-2.233 2.089-4.321 7.2-4.321 5.9 0 7.273 2.736 9.865 2.736 3.168 0 4.465-3.96 4.465-5.9 0-5.617-10.513-6.337-14.33-6.337-9 0-18.433 4.1-18.433 14.906 0 16.849 22.826 15.337 22.826 24.05 0 3.456-3.673 4.752-6.985 4.752-6.7 0-8.857-5.329-12.241-5.329-2.736 0-4.9 3.6-4.9 6.049 0 4.753 7.92 9.361 17.353 9.361 10.441 0 18-5.617 18-15.985.007-18.15-22.82-16.782-22.82-23.982z" fill="#284268" data-original="#284268" style=""/><path d="m477.107 27h-192.486a23.71 23.71 0 0 0 -23.161 19h-224.698c-14.336 0-25.762 12.107-25.762 26.444v306a25.451 25.451 0 0 0 25.762 25.556h142.238v24.519a13.9 13.9 0 0 1 -13.869 14 36.19 36.19 0 0 0 -35.934 36.24 6.266 6.266 0 0 0 6.065 6.241h210a6.21 6.21 0 0 0 6-6.241 36.256 36.256 0 0 0 -36.131-36.12 14.232 14.232 0 0 1 -14.131-14.12v-24.519h148.714c14.336 0 26.286-11.22 26.286-25.556v-224.444h1.826a23.174 23.174 0 0 0 23.174-23.174v-79.933a23.963 23.963 0 0 0 -23.893-23.893zm-161.976 427.759a23.69 23.69 0 0 1 23.369 18.241h-196.479a23.4 23.4 0 0 1 23.11-18.241 26.124 26.124 0 0 0 25.869-26.24v-24.519h98v24.519a26.348 26.348 0 0 0 26.131 26.24zm148.869-76.315c0 7.72-6.566 13.556-14.286 13.556h-412.952a13.44 13.44 0 0 1 -13.762-13.556v-44.444h441zm-390-56.444v-55.083a25.088 25.088 0 0 1 1.214-6.535 36.1 36.1 0 0 1 10.34-16.8 50.831 50.831 0 0 1 9.446 29.367v49.051zm78-69a6 6 0 0 0 6-6v-5.789a52.674 52.674 0 0 0 20.791 4.28 53.5 53.5 0 0 0 21.209-4.455v80.964h-42v-35a6 6 0 0 0 -12 0v18.38l-16.8-31.07 9.01-7.535a6 6 0 0 0 1.119-7.968l-7.271-10.731 13.942-15.99v14.914a6 6 0 0 0 6 6zm-12.7-95h-2.022a1.5 1.5 0 1 1 0-3h2.022c3.314 0 5.7-3.176 5.7-6.489v-13.577c0-5.83 1.939-9.963 6.663-14.215 7.756 7.76 21.127 7.76 26.091 7.76 8.132 0 21.044-1.446 27.627-9.86 6.1 4.394 8.619 9.4 8.619 16.315v13.577a6.614 6.614 0 0 0 6.205 6.489h2.023a1.5 1.5 0 1 1 0 3h-2.023c-3.313 0-6.205 2.367-6.205 5.68v4.595a34.5 34.5 0 0 1 -69 0v-4.595a5.484 5.484 0 0 0 -5.7-5.68zm68.036-64.578a5.995 5.995 0 0 0 -3.665 10.743 5.973 5.973 0 0 0 -6.379 4.484c-1.733 6.813-12.939 7.83-19.464 7.83-10.842 0-17.243-2.19-19.025-6.511l-.037-.093a6 6 0 0 0 -8.985-2.742c-6.657 4.584-13.43 10.561-15.689 20.5a47.127 47.127 0 0 1 3.16-21.806l.384-.965a2.285 2.285 0 0 1 2.135-1.448 16.018 16.018 0 0 0 16-16 3.98 3.98 0 0 1 3.079-3.894 3.541 3.541 0 0 1 1.234-.017c3.515.44 16.023 1.923 29.421 2.528 12 .542 21.4.268 28.41-.839a10.931 10.931 0 0 1 -10.578 8.23zm12.178 8.481a63.947 63.947 0 0 1 3.657 19.11c-3.783-7.768-10.453-12.464-16.185-15.609.117.007.232.018.35.018a22.761 22.761 0 0 0 12.179-3.522zm20.46 166.235-8.611-7.145 6.821-10.039a5.98 5.98 0 0 0 -.435-7.283l-18.749-21.616 39.327 13.308a37.515 37.515 0 0 1 4.105 1.7 62.871 62.871 0 0 0 -11.432 35.886v49.051h-34.87l25.27-46.516a5.848 5.848 0 0 0 -1.425-7.346zm-14.406-20.072-7.23 10.741a6.008 6.008 0 0 0 1.166 7.968l8.914 7.535-16.418 30.19v-71.966zm-25.568-38.094v17.58a40.821 40.821 0 0 1 -42 .244v-18.489a45.784 45.784 0 0 0 21.657 5.42 45.185 45.185 0 0 0 20.343-4.755zm-80.025 33.7a6 6 0 0 0 -.445 7.309l6.821 10.066-8.611 7.2a5.7 5.7 0 0 0 -1.428 7.235l25.273 46.518h-34.585v-49.051a62.8 62.8 0 0 0 -11.454-36.033 38.074 38.074 0 0 1 3.857-1.575l39.434-13.3zm143.025 78.328v-49.051a50.972 50.972 0 0 1 9.416-29.112 36.334 36.334 0 0 1 9.412 13.948c1.045 2.944 1.172 6.015 2.172 9.132v55.083zm226-191.174a11.174 11.174 0 0 1 -11.174 11.174h-62.826a6 6 0 0 0 0 12h49v168h-168v-55.342c0-.167-.182-.333-.2-.5a49.426 49.426 0 0 0 -2.755-12.389c-4.9-13.8-16.528-24.93-30.868-29.773l-50.177-16.896v-5.612c9-8.264 13.882-19.719 14.1-32.4a13.583 13.583 0 0 0 5.5-22.789 75.687 75.687 0 0 0 -1.793-51.108l-1.56-3.626a22.71 22.71 0 0 0 1.753-9.053v-5.1a5.836 5.836 0 0 0 -8.076-5.557c-9.485 3.857-37.145 2.649-60.381-.261a15.4 15.4 0 0 0 -5.45.241 15.925 15.925 0 0 0 -12.329 15.575 4 4 0 0 1 -4 4 14.222 14.222 0 0 0 -13.283 9.012l-.383.966a59.041 59.041 0 0 0 0 43.823l.835 2.1a13.567 13.567 0 0 0 6.371 21.781 46.283 46.283 0 0 0 12.696 31.052v6.816l-50.432 17.01a48.734 48.734 0 0 0 -33.513 42.189c-.015.166-.055.332-.055.5v55.341h-39v-249.556c0-7.72 6.042-14.444 13.762-14.444h224.238v72.618a23.383 23.383 0 0 0 23.382 23.382h14.618v34.125a5.811 5.811 0 0 0 3.99 5.572 5.417 5.417 0 0 0 1.717.282 5.929 5.929 0 0 0 4.9-2.627l25.509-37.352h39.884a6 6 0 0 0 0-12h-43.048a5.673 5.673 0 0 0 -4.757 2.626l-16.195 23.962v-20.559a6.047 6.047 0 0 0 -6.029-6.029h-20.589a11.416 11.416 0 0 1 -11.382-11.382v-79.725a11.928 11.928 0 0 1 11.893-11.893h192.933a11.174 11.174 0 0 1 11.174 11.174z" fill="#284268" data-original="#284268" style=""/></g></g></svg>
