<svg id="line" height="512" viewBox="0 0 64 64" width="512" xmlns="http://www.w3.org/2000/svg"><path d="m27.2 33.26a4 4 0 0 0 -.36 5.977l12.893 12.887a4 4 0 0 0 5.977-.363l1.564-2-18.074-18.061z" fill="#c4a2fc"/><path d="m61.537 24.431-7.01-7.007a5 5 0 0 0 -6.62-.4l-17.124 13.428 17.734 17.727 13.421-17.128a5.006 5.006 0 0 0 -.401-6.62z" fill="#c4a2fc"/><path d="m28.372 43.6a6.029 6.029 0 0 0 -8.485-.1l-.052.052c-3.135 3.128-2.835 5.899-2.569 8.348.256 2.362.459 4.227-2.278 6.424a.948.948 0 0 0 -.115 1.468c.246.2 6.1 4.763 13.165 2.662a15.653 15.653 0 0 0 6.606-4.107 6.055 6.055 0 0 0 -.062-8.536z" fill="#c4a2fc"/><g fill="#151a6a"><path d="m40 1h-36a3 3 0 0 0 -3 3v36a3 3 0 0 0 3 3h36a3 3 0 0 0 3-3v-36a3 3 0 0 0 -3-3zm-36 2h36a1 1 0 0 1 1 1v5h-38v-5a1 1 0 0 1 1-1zm36 38h-36a1 1 0 0 1 -1-1v-29h38v29a1 1 0 0 1 -1 1z"/><path d="m19 14h-10a3 3 0 0 0 -3 3v4a3 3 0 0 0 3 3h10a3 3 0 0 0 3-3v-4a3 3 0 0 0 -3-3zm1 7a1 1 0 0 1 -1 1h-10a1 1 0 0 1 -1-1v-4a1 1 0 0 1 1-1h10a1 1 0 0 1 1 1z"/><path d="m19 28h-10a3 3 0 0 0 -3 3v4a3 3 0 0 0 3 3h10a3 3 0 0 0 3-3v-4a3 3 0 0 0 -3-3zm1 7a1 1 0 0 1 -1 1h-10a1 1 0 0 1 -1-1v-4a1 1 0 0 1 1-1h10a1 1 0 0 1 1 1z"/><path d="m35 14h-7a3 3 0 0 0 -3 3v19a3 3 0 0 0 3 3h7a3 3 0 0 0 3-3v-19a3 3 0 0 0 -3-3zm1 22a1 1 0 0 1 -1 1h-7a1 1 0 0 1 -1-1v-19a1 1 0 0 1 1-1h7a1 1 0 0 1 1 1z"/></g></svg>